<?xml version="1.0" standalone="no"?>
<!DOCTYPE svg PUBLIC "-//W3C//DTD SVG 20010904//EN"
 "http://www.w3.org/TR/2001/REC-SVG-20010904/DTD/svg10.dtd">
<svg version="1.0" xmlns="http://www.w3.org/2000/svg"
 width="1024.000000pt" height="411.000000pt" viewBox="0 0 1024.000000 411.000000"
 preserveAspectRatio="xMidYMid meet">

<g transform="translate(0.000000,411.000000) scale(0.100000,-0.100000)"
fill="#000000" stroke="none">
<path d="M1545 4016 c-90 -28 -148 -77 -165 -137 -12 -40 -13 -3287 -1 -3392
4 -37 12 -72 17 -77 14 -14 7444 -14 7458 0 6 6 14 43 18 83 3 39 7 812 7
1717 1 1579 0 1647 -18 1685 -23 50 -53 78 -116 107 l-50 23 -3555 2 c-2847 1
-3563 -1 -3595 -11z m7105 -1796 l0 -1595 -3522 0 -3523 0 -3 1585 c-1 872 0
1591 3 1598 3 10 714 12 3525 10 l3520 -3 0 -1595z"/>
<path d="M5133 3762 c-132 -47 -227 -178 -269 -367 -23 -107 -23 -341 -1 -445
35 -156 125 -292 232 -348 43 -23 62 -27 140 -27 78 0 97 4 140 27 66 35 117
89 154 163 34 70 66 184 54 195 -4 4 -42 22 -82 39 -77 32 -90 30 -91 -11 0
-42 -43 -128 -80 -162 -45 -40 -76 -51 -123 -42 -120 23 -176 147 -177 392 0
146 11 211 48 284 77 152 259 142 318 -17 9 -27 20 -51 23 -55 8 -8 147 24
161 38 23 23 -45 186 -107 255 -80 88 -224 122 -340 81z m323 -86 c30 -30 54
-61 54 -69 0 -7 -12 -19 -26 -26 -24 -11 -30 -9 -56 16 -26 25 -25 21 10 -32
30 -45 53 -66 87 -83 26 -13 45 -25 42 -28 -3 -3 -30 9 -60 26 -37 21 -57 39
-61 56 -4 14 -28 47 -54 73 -94 94 -230 93 -330 -3 -18 -17 -35 -29 -37 -26
-2 3 -13 -7 -25 -22 -18 -24 -24 -26 -45 -16 -23 10 -23 12 -9 41 18 35 90
114 116 128 15 8 20 5 30 -16 8 -17 17 -24 27 -20 62 24 160 24 222 0 12 -4
20 3 29 24 7 17 17 31 22 31 5 0 34 -24 64 -54z m-446 -142 c-35 -72 -35 -89
-2 -103 29 -12 29 -14 20 -54 -6 -23 -11 -111 -12 -195 l-1 -152 -27 6 c-19 4
-28 1 -29 -8 -1 -7 -5 5 -10 27 -5 22 -8 105 -7 184 2 150 19 234 64 310 25
42 27 33 4 -15z m-85 -334 c5 -161 13 -218 46 -305 19 -50 23 -56 30 -38 4 12
18 24 30 28 18 6 27 1 43 -21 11 -16 30 -39 42 -50 18 -19 19 -25 8 -45 -19
-35 -18 -38 21 -55 45 -18 128 -18 166 1 28 15 29 16 13 40 -16 25 -15 26 27
73 24 26 47 47 52 46 4 -1 12 -2 17 -2 6 -1 14 -11 18 -22 7 -18 10 -15 28 24
12 26 16 42 9 40 -12 -5 -52 83 -42 92 2 3 12 -13 21 -35 14 -35 19 -40 45
-38 16 1 29 7 28 12 -3 18 38 11 41 -7 3 -13 -3 -18 -20 -18 -35 0 -56 -19
-88 -80 -15 -30 -33 -54 -40 -52 -6 1 -9 -2 -6 -7 10 -16 -72 -78 -120 -91
-52 -15 -129 -8 -176 16 -42 21 -99 74 -92 86 3 5 0 7 -7 6 -6 -2 -14 3 -17
11 -3 9 0 11 8 6 9 -5 11 -4 6 4 -4 6 -12 9 -17 5 -5 -3 -21 20 -35 51 -23 50
-29 56 -50 51 -37 -10 -49 49 -49 242 0 134 3 164 15 172 36 23 40 9 45 -140z"/>
<path d="M3540 3175 l0 -586 83 3 82 3 5 425 c3 234 6 421 8 415 1 -5 31 -174
67 -375 36 -201 70 -389 76 -417 l10 -53 84 0 83 0 10 48 c6 26 41 218 78 427
l69 380 5 -425 5 -425 83 -3 82 -3 0 586 0 586 -132 -3 -132 -3 -73 -374 c-39
-205 -74 -375 -76 -377 -2 -3 -38 165 -78 373 l-74 378 -133 3 -132 3 0 -586z
m812 -191 l3 -352 -30 27 -30 26 1 220 c2 304 -7 636 -17 630 -4 -3 -8 3 -8
12 -3 92 -2 96 36 135 l38 39 2 -193 c2 -106 4 -351 5 -544z m-87 118 c0 -407
-1 -419 -20 -434 -20 -15 -20 -14 -20 413 0 420 0 428 20 432 11 2 20 5 20 6
0 0 0 -187 0 -417z"/>
<path d="M6065 3748 c-3 -7 -4 -269 -3 -583 l3 -570 88 -3 87 -3 0 241 0 240
40 0 c60 0 105 -23 136 -70 15 -23 68 -123 118 -223 l91 -182 103 -3 c67 -2
102 1 102 8 0 14 -90 212 -147 322 -24 48 -63 107 -85 133 -22 25 -39 47 -37
49 2 1 20 9 38 16 85 34 143 120 162 239 25 166 -40 329 -151 380 -49 22 -537
30 -545 9z m486 -236 c25 -27 29 -41 29 -88 0 -62 -19 -107 -53 -126 -13 -7
-76 -14 -154 -16 l-133 -4 0 137 0 137 141 -4 141 -3 29 -33z m-431 -825 c0
-2 -10 -12 -22 -23 l-23 -19 19 23 c18 21 26 27 26 19z"/>
<path d="M4532 2708 l3 -113 83 -3 82 -3 0 116 0 115 -85 0 -86 0 3 -112z
m158 -1 l0 -91 -33 32 c-39 38 -53 39 -84 10 l-23 -21 0 73 0 73 25 -23 c14
-13 25 -32 25 -42 0 -10 5 -18 10 -18 6 0 10 8 10 17 0 9 15 33 33 53 32 34
32 35 1 7 -38 -34 -45 -34 -75 1 l-24 27 26 -22 c32 -29 40 -29 69 2 12 13 27
22 31 19 5 -3 9 -46 9 -97z"/>
<path d="M5732 2708 l3 -113 83 -3 82 -3 0 116 0 115 -85 0 -86 0 3 -112z
m158 2 c0 -75 -1 -80 -18 -71 -10 5 -24 17 -32 25 -17 22 -40 20 -67 -6 l-23
-21 0 73 0 73 25 -23 c14 -13 25 -31 25 -41 0 -10 5 -21 10 -24 6 -3 10 4 10
16 0 22 45 79 62 79 4 0 8 -36 8 -80z"/>
<path d="M3462 2213 l3 -88 1685 0 1685 0 3 88 3 87 -1691 0 -1691 0 3 -87z
m1961 10 c-156 -2 -410 -2 -565 0 -156 1 -29 2 282 2 311 0 438 -1 283 -2z"/>
<path d="M4654 1856 c-22 -22 -34 -44 -35 -62 -4 -99 14 -128 107 -170 63 -29
74 -37 74 -59 0 -15 -9 -31 -26 -41 -35 -24 -74 -9 -94 34 -11 27 -19 32 -40
30 -53 -6 -25 -111 40 -146 34 -18 115 -10 141 14 48 43 62 128 32 191 -13 29
-30 42 -89 69 -39 18 -75 37 -78 42 -10 17 5 42 29 48 34 8 60 -3 73 -31 8
-17 20 -25 37 -25 33 0 40 20 25 65 -15 46 -61 75 -118 75 -37 0 -50 -6 -78
-34z m185 -310 c-9 -8 -10 -7 -5 7 3 10 7 24 7 30 1 7 3 4 6 -7 3 -10 -1 -23
-8 -30z m-159 -39 c0 -18 -2 -19 -10 -7 -13 20 -13 43 0 35 6 -3 10 -16 10
-28z m134 2 c-9 -10 -21 -16 -26 -13 -12 8 8 31 27 31 13 0 13 -3 -1 -18z
m-40 -17 c3 -5 -1 -9 -9 -9 -8 0 -12 4 -9 9 3 4 7 8 9 8 2 0 6 -4 9 -8z"/>
<path d="M5113 1870 c-18 -10 -42 -39 -55 -62 -20 -37 -23 -58 -23 -143 0 -85
3 -106 23 -143 55 -102 182 -110 231 -13 28 54 26 68 -9 86 -29 15 -30 15 -43
-17 -19 -45 -41 -62 -72 -54 -39 10 -58 49 -62 129 -4 75 13 129 48 150 25 16
67 -1 84 -33 14 -27 17 -28 45 -19 35 13 38 31 10 76 -37 61 -116 81 -177 43z
m8 -342 c11 -21 11 -22 -4 -9 -10 7 -17 17 -17 22 0 15 9 10 21 -13z m110 -1
c-6 -8 -7 -18 -3 -22 4 -5 1 -5 -6 -1 -10 6 -10 11 -1 22 6 8 14 14 16 14 3 0
0 -6 -6 -13z"/>
<path d="M5442 1870 c-53 -33 -82 -106 -82 -211 0 -75 4 -94 28 -139 34 -66
78 -93 141 -87 78 8 123 63 141 171 11 70 -3 168 -32 214 -43 70 -130 92 -196
52z m110 -71 c29 -16 48 -70 48 -139 0 -105 -41 -162 -105 -146 -75 19 -89
244 -18 285 23 14 49 14 75 0z m103 -169 c-4 -12 -9 -19 -12 -17 -3 3 -2 15 2
27 4 12 9 19 12 17 3 -3 2 -15 -2 -27z m-202 -110 c4 -17 3 -19 -9 -9 -8 6
-14 18 -14 26 0 20 16 8 23 -17z m137 6 c0 -2 -8 -10 -17 -17 -16 -13 -17 -12
-4 4 13 16 21 21 21 13z"/>
<path d="M2770 1660 l0 -220 29 0 c17 0 31 6 35 16 3 9 7 70 7 137 l1 122 19
-95 c10 -52 22 -113 26 -135 7 -36 11 -40 40 -43 35 -3 35 -4 63 168 18 109
25 101 30 -35 l5 -130 30 0 30 0 0 215 0 215 -51 3 -51 3 -23 -118 c-13 -65
-26 -124 -30 -131 -4 -8 -17 37 -29 100 -31 160 -25 148 -82 148 l-49 0 0
-220z m197 -62 c-3 -7 -5 -2 -5 12 0 14 2 19 5 13 2 -7 2 -19 0 -25z m-147
-58 c0 -53 -2 -60 -20 -60 -11 0 -20 5 -20 10 0 6 6 9 13 8 8 -2 13 14 15 50
4 71 12 66 12 -8z m250 0 c0 -47 -3 -60 -15 -60 -8 0 -15 5 -15 10 0 6 5 10
10 10 6 0 10 23 10 50 0 28 2 50 5 50 3 0 5 -27 5 -60z m-114 -25 c-5 -18 -11
-21 -31 -17 -14 2 -25 10 -25 17 0 8 -3 20 -6 28 -4 11 1 13 20 10 19 -4 28 0
33 13 7 17 8 17 11 -5 2 -12 1 -33 -2 -46z"/>
<path d="M3171 1669 c-34 -116 -59 -215 -56 -220 4 -5 19 -9 35 -9 26 0 30 5
42 48 l14 47 64 0 64 0 14 -47 c12 -45 15 -48 48 -48 20 0 34 5 34 13 0 6 -28
105 -61 220 l-62 207 -37 0 -37 0 -62 -211z m118 27 c6 -24 13 -51 17 -60 5
-13 -1 -16 -36 -16 -30 0 -41 4 -37 13 2 6 10 35 17 64 8 29 17 50 21 48 3 -3
12 -24 18 -49z m-114 -163 c-3 -16 -10 -32 -15 -37 -5 -5 -4 7 2 27 13 43 23
50 13 10z m194 -13 c6 -19 7 -30 2 -25 -5 6 -13 24 -17 40 -9 39 0 30 15 -15z"/>
<path d="M3462 1663 l3 -218 30 0 30 0 3 88 c2 78 5 87 22 87 27 0 51 -29 90
-110 32 -65 36 -70 66 -70 18 0 35 4 38 9 7 10 -38 112 -66 153 -18 26 -18 26
11 56 54 53 54 151 0 196 -28 24 -38 26 -130 26 l-99 0 2 -217z m177 128 c8
-5 14 -24 14 -41 0 -40 -15 -50 -75 -50 l-48 0 0 50 0 50 48 0 c26 0 53 -4 61
-9z m17 -188 c-7 -7 -26 7 -26 19 0 6 6 6 15 -2 9 -7 13 -15 11 -17z m-143
-121 c-1 -2 -10 1 -20 7 -10 6 -12 11 -5 11 8 0 13 18 14 53 l1 52 6 -60 c3
-33 5 -62 4 -63z m171 22 c3 -8 2 -12 -4 -9 -6 3 -10 10 -10 16 0 14 7 11 14
-7z m41 -32 c-3 -3 -11 0 -18 7 -9 10 -8 11 6 5 10 -3 15 -9 12 -12z"/>
<path d="M3760 1840 l0 -40 45 0 45 0 2 -177 3 -178 33 -3 32 -3 0 180 0 180
48 3 c47 3 47 3 50 41 l3 37 -130 0 -131 0 0 -40z m150 -304 c0 -59 -2 -64
-20 -59 -20 5 -28 23 -11 23 5 0 11 23 15 50 4 28 9 50 11 50 3 0 5 -29 5 -64z"/>
<path d="M4050 1659 l0 -220 33 3 32 3 3 218 2 217 -35 0 -35 0 0 -221z m46
-176 c-2 -3 -13 0 -23 6 -17 10 -17 10 0 11 14 0 17 10 19 53 l2 52 3 -59 c2
-32 2 -60 -1 -63z"/>
<path d="M4182 1663 l3 -218 30 0 30 0 5 125 5 125 59 -128 c59 -125 60 -127
93 -127 l33 0 0 220 0 220 -30 0 -29 0 -3 -137 -3 -137 -62 134 c-62 134 -63
135 -98 138 l-35 3 2 -218z m48 -123 c0 -47 -3 -60 -15 -60 -8 0 -15 5 -15 10
0 6 5 10 10 10 6 0 10 23 10 50 0 28 2 50 5 50 3 0 5 -27 5 -60z m197 -57 c-9
-9 -44 24 -50 47 -3 12 2 20 14 23 11 3 20 13 20 24 1 10 6 -6 12 -35 5 -29 7
-55 4 -59z"/>
<path d="M4500 1840 c0 -26 5 -42 17 -48 16 -9 16 -11 0 -36 -22 -33 -22 -58
1 -54 26 5 52 66 52 126 l0 52 -35 0 c-34 0 -35 -1 -35 -40z"/>
<path d="M5710 1660 l0 -220 29 0 c17 0 31 6 35 16 3 9 7 70 7 137 l1 122 19
-95 c10 -52 22 -113 26 -135 7 -36 11 -40 40 -43 35 -3 35 -4 63 168 18 109
25 101 30 -35 l5 -130 30 0 30 0 0 215 0 215 -51 3 -51 3 -23 -118 c-13 -65
-26 -124 -30 -131 -4 -8 -17 37 -29 100 -31 160 -25 148 -82 148 l-49 0 0
-220z m197 -62 c-3 -7 -5 -2 -5 12 0 14 2 19 5 13 2 -7 2 -19 0 -25z m-147
-58 c0 -53 -2 -60 -20 -60 -11 0 -20 5 -20 10 0 6 6 9 13 8 8 -2 13 14 15 50
4 71 12 66 12 -8z m250 0 c0 -47 -3 -60 -15 -60 -8 0 -15 5 -15 10 0 6 5 10
10 10 6 0 10 23 10 50 0 28 2 50 5 50 3 0 5 -27 5 -60z m-114 -25 c-5 -18 -11
-21 -31 -17 -14 2 -25 10 -25 17 0 8 -3 20 -6 28 -4 11 1 13 20 10 19 -4 28 0
33 13 7 17 8 17 11 -5 2 -12 1 -33 -2 -46z"/>
<path d="M6082 1663 l3 -218 30 0 30 0 3 78 3 77 47 0 c95 0 136 50 129 159
-3 57 -7 67 -35 92 -31 27 -37 29 -122 29 l-90 0 2 -217z m160 120 c44 -40 8
-103 -59 -103 l-33 0 0 60 0 60 37 0 c20 0 45 -7 55 -17z m-109 -301 c-1 -2
-10 1 -20 7 -10 6 -12 11 -5 11 8 0 13 19 14 58 l1 57 6 -65 c3 -36 5 -67 4
-68z"/>
<path d="M6380 1718 c0 -180 8 -223 46 -259 34 -32 130 -35 164 -4 43 38 50
73 50 255 l0 170 -35 0 -35 0 0 -163 c0 -131 -3 -167 -16 -185 -17 -25 -51
-29 -80 -8 -17 13 -19 30 -22 185 l-3 171 -35 0 -34 0 0 -162z m229 -172 c-9
-8 -10 -7 -5 7 3 10 7 28 7 40 2 16 3 14 6 -7 3 -16 -1 -34 -8 -40z m-154 -47
c-5 -7 -11 -6 -21 2 -11 9 -12 15 -2 26 10 12 13 12 20 -1 5 -9 6 -21 3 -27z
m130 11 c-17 -19 -41 -18 -29 1 3 5 9 7 14 4 5 -3 11 -1 15 5 3 5 9 10 12 10
3 0 -2 -9 -12 -20z m-100 -20 c3 -5 -1 -10 -10 -10 -9 0 -13 5 -10 10 3 6 8
10 10 10 2 0 7 -4 10 -10z"/>
<path d="M6680 1840 l0 -40 45 0 45 0 2 -177 3 -178 33 -3 32 -3 0 180 0 180
48 3 c47 3 47 3 50 41 l3 37 -130 0 -131 0 0 -40z m150 -304 c0 -59 -2 -64
-20 -59 -20 5 -28 23 -11 23 5 0 11 23 15 50 4 28 9 50 11 50 3 0 5 -29 5 -64z"/>
<path d="M6972 1663 l3 -218 120 0 120 0 3 38 3 37 -90 0 -91 0 0 55 0 55 80
0 80 0 0 40 0 40 -80 0 -80 0 0 45 0 45 85 0 85 0 0 40 0 40 -120 0 -120 0 2
-217z m45 -110 c-3 -10 -5 -2 -5 17 0 19 2 27 5 18 2 -10 2 -26 0 -35z m7 -49
c5 -14 4 -15 -9 -4 -17 14 -19 20 -6 20 5 0 12 -7 15 -16z m179 -21 c-7 -2
-19 -2 -25 0 -7 3 -2 5 12 5 14 0 19 -2 13 -5z"/>
<path d="M7272 1663 l3 -218 30 0 30 0 3 88 c2 78 5 87 22 87 27 0 51 -29 90
-110 32 -65 36 -70 66 -70 18 0 35 4 38 9 7 10 -38 112 -66 153 -18 26 -18 26
11 56 54 53 54 151 0 196 -28 24 -38 26 -130 26 l-99 0 2 -217z m177 128 c8
-5 14 -24 14 -41 0 -40 -15 -50 -75 -50 l-48 0 0 50 0 50 48 0 c26 0 53 -4 61
-9z m17 -188 c-7 -7 -26 7 -26 19 0 6 6 6 15 -2 9 -7 13 -15 11 -17z m-143
-121 c-1 -2 -10 1 -20 7 -10 6 -12 11 -5 11 8 0 13 18 14 53 l1 52 6 -60 c3
-33 5 -62 4 -63z m171 22 c3 -8 2 -12 -4 -9 -6 3 -10 10 -10 16 0 14 7 11 14
-7z m41 -32 c-3 -3 -11 0 -18 7 -9 10 -8 11 6 5 10 -3 15 -9 12 -12z"/>
<path d="M5474 1136 c-22 -22 -34 -44 -35 -62 -4 -99 14 -128 107 -170 63 -29
74 -37 74 -59 0 -15 -9 -31 -26 -41 -35 -24 -74 -9 -94 34 -11 27 -19 32 -40
30 -53 -6 -25 -111 40 -146 34 -18 115 -10 141 14 48 43 62 128 32 191 -13 29
-30 42 -89 69 -39 18 -75 37 -78 42 -10 17 5 42 29 48 34 8 60 -3 73 -31 8
-17 20 -25 37 -25 33 0 40 20 25 65 -15 46 -61 75 -118 75 -37 0 -50 -6 -78
-34z m156 -1 c18 -11 11 -26 -7 -17 -25 13 -126 12 -136 -2 -6 -7 -7 -6 -4 4
2 8 10 14 16 13 6 -2 11 1 11 6 0 9 104 6 120 -4z m-140 -68 c0 -5 -4 -5 -10
-2 -5 3 -10 14 -10 23 0 15 2 15 10 2 5 -8 10 -19 10 -23z m164 4 c-2 -3 -12
3 -22 13 -16 17 -16 18 5 5 12 -7 20 -15 17 -18z m-160 -52 c-6 -11 -24 -2
-24 11 0 5 7 7 15 4 8 -4 12 -10 9 -15z"/>
<path d="M6132 1150 c-53 -33 -82 -106 -82 -211 0 -75 4 -94 28 -139 34 -66
78 -93 141 -87 78 8 123 63 141 171 11 70 -3 168 -32 214 -43 70 -130 92 -196
52z m108 -12 c0 -4 7 -5 15 -1 9 3 25 -3 35 -12 22 -20 28 -44 7 -26 -8 6 -17
8 -20 4 -4 -3 -9 1 -12 9 -9 24 -96 23 -127 -2 -15 -11 -29 -16 -32 -12 -8 13
30 45 43 37 6 -3 11 -2 11 2 0 5 18 8 40 8 22 0 40 -3 40 -7z m2 -59 c29 -16
48 -70 48 -139 0 -105 -41 -162 -105 -146 -75 19 -89 244 -18 285 23 14 49 14
75 0z m63 -45 c2 -21 2 -30 -1 -19 -3 11 -10 33 -15 50 -7 21 -6 26 1 19 6 -6
13 -28 15 -50z m-203 -33 c0 -23 -2 -45 -6 -48 -3 -4 -6 18 -6 47 0 29 3 51 6
48 3 -3 5 -25 6 -47z"/>
<path d="M3672 943 l3 -218 30 0 30 0 3 88 c2 78 5 87 22 87 27 0 51 -29 90
-110 32 -65 36 -70 66 -70 18 0 35 4 38 9 7 10 -38 112 -66 153 -18 26 -18 26
11 56 54 53 54 151 0 196 -28 24 -38 26 -130 26 l-99 0 2 -217z m227 181 c11
-11 -24 -23 -37 -12 -7 6 -39 10 -70 9 -31 -1 -67 2 -79 6 -14 5 18 7 79 5 56
-1 104 -5 107 -8z m-184 -38 c4 -18 5 -44 2 -57 -2 -15 -5 -7 -6 19 0 23 -5
42 -11 42 -5 0 -10 7 -10 15 0 29 19 15 25 -19z m172 -33 c-3 -10 -5 -4 -5 12
0 17 2 24 5 18 2 -7 2 -21 0 -30z m-38 18 c8 -5 14 -24 14 -41 0 -40 -15 -50
-75 -50 l-48 0 0 50 0 50 48 0 c26 0 53 -4 61 -9z m60 -55 c-9 -8 -10 -7 -5 7
3 10 7 24 7 30 1 7 3 4 6 -7 3 -10 -1 -23 -8 -30z"/>
<path d="M3992 943 l3 -218 120 0 120 0 3 38 3 37 -90 0 -91 0 0 55 0 55 80 0
80 0 0 40 0 40 -80 0 -80 0 0 45 0 45 85 0 85 0 0 40 0 40 -120 0 -120 0 2
-217z m228 184 c0 -9 -26 -11 -99 -7 -55 3 -102 8 -105 11 -3 2 40 3 96 1 80
-4 99 -2 93 8 -5 9 -4 11 3 6 7 -4 12 -13 12 -19z m-185 -41 c4 -18 5 -44 2
-57 -2 -15 -5 -7 -6 19 0 23 -5 42 -11 42 -5 0 -10 7 -10 15 0 29 19 15 25
-19z"/>
<path d="M4282 943 l3 -218 30 0 30 0 3 78 3 77 47 0 c95 0 136 50 129 159 -3
57 -7 67 -35 92 -31 27 -37 29 -122 29 l-90 0 2 -217z m158 185 c0 -10 -99 -9
-123 1 -10 3 14 7 52 6 39 0 71 -3 71 -7z m38 -19 c-7 -4 -16 -3 -20 4 -11 18
2 29 18 16 12 -10 12 -14 2 -20z m-153 -22 c4 -18 5 -49 2 -68 -3 -25 -4 -21
-5 19 -1 28 -6 52 -12 52 -5 0 -10 7 -10 15 0 29 19 15 25 -18z m152 -34 c-3
-10 -5 -4 -5 12 0 17 2 24 5 18 2 -7 2 -21 0 -30z m-35 10 c44 -40 8 -103 -59
-103 l-33 0 0 60 0 60 37 0 c20 0 45 -7 55 -17z m71 -33 c3 -10 -1 -24 -7 -29
-10 -8 -11 -3 -8 19 5 35 8 37 15 10z"/>
<path d="M4581 949 c-34 -116 -59 -215 -56 -220 4 -5 19 -9 35 -9 26 0 30 5
42 48 l14 47 64 0 64 0 14 -47 c12 -45 15 -48 48 -48 20 0 34 5 34 13 0 6 -28
105 -61 220 l-62 207 -37 0 -37 0 -62 -211z m103 190 c26 22 18 -4 -9 -29 -15
-14 -26 -36 -26 -54 l-2 -31 -4 28 c-3 18 2 36 12 47 11 12 13 20 6 25 -6 3
-11 12 -11 18 0 8 4 7 9 -2 8 -12 12 -12 25 -2z m23 -111 c-3 -8 -6 -5 -6 6
-1 11 2 17 5 13 3 -3 4 -12 1 -19z m-8 -52 c6 -24 13 -51 17 -60 5 -13 -1 -16
-36 -16 -30 0 -41 4 -37 13 2 6 10 35 17 64 8 29 17 50 21 48 3 -3 12 -24 18
-49z"/>
<path d="M4870 939 l0 -220 33 3 32 3 3 218 2 217 -35 0 -35 0 0 -221z m40
207 c0 -11 -19 -15 -25 -6 -3 5 1 10 9 10 9 0 16 -2 16 -4z m7 -128 c-2 -24
-4 -7 -4 37 0 44 2 63 4 43 2 -21 2 -57 0 -80z"/>
<path d="M4992 943 l3 -218 30 0 30 0 3 88 c2 78 5 87 22 87 27 0 51 -29 90
-110 32 -65 36 -70 66 -70 18 0 35 4 38 9 7 10 -38 112 -66 153 -18 26 -18 26
11 56 54 53 54 151 0 196 -28 24 -38 26 -130 26 l-99 0 2 -217z m227 181 c11
-11 -24 -23 -37 -12 -7 6 -39 10 -70 9 -31 -1 -67 2 -79 6 -14 5 18 7 79 5 56
-1 104 -5 107 -8z m-184 -38 c4 -18 5 -44 2 -57 -2 -15 -5 -7 -6 19 0 23 -5
42 -11 42 -5 0 -10 7 -10 15 0 29 19 15 25 -19z m172 -33 c-3 -10 -5 -4 -5 12
0 17 2 24 5 18 2 -7 2 -21 0 -30z m-38 18 c8 -5 14 -24 14 -41 0 -40 -15 -50
-75 -50 l-48 0 0 50 0 50 48 0 c26 0 53 -4 61 -9z m60 -55 c-9 -8 -10 -7 -5 7
3 10 7 24 7 30 1 7 3 4 6 -7 3 -10 -1 -23 -8 -30z"/>
<path d="M5742 943 l3 -218 30 0 30 0 3 93 3 92 59 0 59 0 3 -92 3 -93 33 -3
32 -3 0 220 0 221 -35 0 -35 0 0 -85 0 -85 -60 0 -60 0 0 85 0 85 -35 0 -35 0
2 -217z m38 203 c0 -3 -4 -8 -10 -11 -5 -3 -10 -1 -10 4 0 6 5 11 10 11 6 0
10 -2 10 -4z m207 -86 c1 -72 0 -80 -8 -50 -6 19 -9 55 -7 81 2 26 0 45 -4 43
-4 -2 -10 1 -13 7 -5 7 0 10 11 7 17 -3 19 -14 21 -88z m-200 -22 c-2 -18 -4
-4 -4 32 0 36 2 50 4 33 2 -18 2 -48 0 -65z"/>
<path d="M6412 943 l3 -218 30 0 30 0 3 78 3 77 47 0 c95 0 136 50 129 159 -3
57 -7 67 -35 92 -31 27 -37 29 -122 29 l-90 0 2 -217z m158 185 c0 -10 -99 -9
-123 1 -10 3 14 7 52 6 39 0 71 -3 71 -7z m38 -19 c-7 -4 -16 -3 -20 4 -11 18
2 29 18 16 12 -10 12 -14 2 -20z m-153 -22 c4 -18 5 -49 2 -68 -3 -25 -4 -21
-5 19 -1 28 -6 52 -12 52 -5 0 -10 7 -10 15 0 29 19 15 25 -18z m152 -34 c-3
-10 -5 -4 -5 12 0 17 2 24 5 18 2 -7 2 -21 0 -30z m-35 10 c44 -40 8 -103 -59
-103 l-33 0 0 60 0 60 37 0 c20 0 45 -7 55 -17z m71 -33 c3 -10 -1 -24 -7 -29
-10 -8 -11 -3 -8 19 5 35 8 37 15 10z"/>
<path d="M9733 335 c0 -33 2 -45 4 -27 2 18 2 45 0 60 -2 15 -4 0 -4 -33z"/>
<path d="M657 230 c13 -5 62 -17 110 -26 49 -8 92 -20 98 -25 12 -12 8498 -12
8511 0 5 5 52 16 104 25 53 9 102 21 110 26 9 6 -1692 10 -4470 9 -2684 0
-4476 -4 -4463 -9z"/>
</g>
</svg>
